<svg width="338" height="68" viewBox="0 0 338 68" fill="none" xmlns="http://www.w3.org/2000/svg">
<path d="M29.0737 46.4813C29.9542 48.0059 29.984 49.8773 29.1526 51.4293L20.3552 67.8507L11.5578 51.4293C10.7264 49.8774 10.7563 48.0059 11.6368 46.4813L12.7654 44.5269C12.9169 44.2646 13.1969 44.1029 13.4999 44.1029H27.2106C27.5136 44.1029 27.7935 44.2646 27.945 44.5269L29.0737 46.4813Z" fill="#0A0A0A"/>
<path d="M25.0069 39.4382C25.3333 40.0036 24.9253 40.7104 24.2724 40.7104H16.4381C15.7852 40.7104 15.3771 40.0036 15.7035 39.4382L19.6207 32.6532C19.9472 32.0878 20.7633 32.0878 21.0897 32.6532L25.0069 39.4382Z" fill="#0A0A0A"/>
<path d="M20.3552 1.96289e-07C21.3261 -0.000353982 22.2978 0.478593 22.8516 1.43868L39.8184 30.8467C42.3617 35.2571 39.1587 40.709 34.1043 40.7096H30.6382C30.3352 40.7096 30.0552 40.5479 29.9037 40.2855L21.0897 25.0199C20.7633 24.4545 19.9472 24.4545 19.6207 25.0199L10.8068 40.2855C10.6553 40.5479 10.3753 40.7096 10.0723 40.7096H6.60619C1.55186 40.7089 -1.65123 35.257 0.892051 30.8467L17.8589 1.43868C18.4126 0.478609 19.3843 -0.000328547 20.3552 1.96289e-07Z" fill="#0A0A0A"/>
<path d="M57.6738 36.258L71.668 0.636427H78.7415L92.5321 36.258H85.9676L82.3036 26.284H67.6988L64.0348 36.258H57.6738ZM69.4798 21.5005H80.6243L75.0266 6.43766L69.4798 21.5005Z" fill="#0A0A0A"/>
<path d="M97.1256 36.258V0.636427H103.232V30.9657H122.213V36.258H97.1256Z" fill="#0A0A0A"/>
<path d="M128.98 36.258V0.636427H144.908C147.317 0.636427 149.403 1.11138 151.167 2.06129C152.965 2.97728 154.356 4.26644 155.34 5.92878C156.324 7.59112 156.816 9.52487 156.816 11.73C156.816 13.8334 156.324 15.7162 155.34 17.3786C154.356 19.0409 152.965 20.3471 151.167 21.297C149.403 22.2129 147.317 22.6709 144.908 22.6709H135.087V36.258H128.98ZM135.087 17.6839H143.941C146.113 17.6839 147.775 17.1411 148.928 16.0555C150.082 14.936 150.659 13.4772 150.659 11.6791C150.659 9.91501 150.082 8.50711 148.928 7.45542C147.775 6.36981 146.13 5.827 143.992 5.827H135.087V17.6839Z" fill="#0A0A0A"/>
<path d="M163.264 36.258V0.636427H169.371V15.5975H187.08V0.636427H193.186V36.258H187.08V21.0425H169.371V36.258H163.264Z" fill="#0A0A0A"/>
<path d="M197.516 36.258L211.511 0.636427H218.584L225.479 18.4472L232.375 36.258H225.81L222.146 26.284H207.541L203.877 36.258H197.516ZM209.322 21.5005H220.467L214.869 6.43766L209.322 21.5005Z" fill="#0A0A0A"/>
<path d="M244.788 36.258V5.92878H232.88V0.636427H262.803V5.92878H250.895V36.258H244.788Z" fill="#0A0A0A"/>
<path d="M282.682 36.8178C280.172 36.8178 277.814 36.3598 275.609 35.4438C273.438 34.4939 271.521 33.1878 269.859 31.5255C268.23 29.8292 266.958 27.8785 266.042 25.6733C265.126 23.4343 264.668 21.0256 264.668 18.4472C264.668 15.8689 265.126 13.4772 266.042 11.272C266.958 9.03295 268.23 7.08224 269.859 5.4199C271.521 3.72363 273.438 2.41751 275.609 1.50152C277.814 0.551615 280.172 0.0766602 282.682 0.0766602C285.193 0.0766602 287.534 0.551615 289.705 1.50152C291.91 2.41751 293.827 3.72363 295.455 5.4199C297.118 7.08224 298.407 9.03295 299.323 11.272C300.239 13.4772 300.697 15.8689 300.697 18.4472C300.697 21.0256 300.239 23.4343 299.323 25.6733C298.407 27.8785 297.118 29.8292 295.455 31.5255C293.827 33.1878 291.91 34.4939 289.705 35.4438C287.534 36.3598 285.193 36.8178 282.682 36.8178ZM282.682 31.3219C284.345 31.3219 285.888 30.9996 287.313 30.355C288.738 29.7104 289.976 28.8114 291.028 27.658C292.114 26.4706 292.945 25.0966 293.521 23.536C294.132 21.9755 294.437 20.2792 294.437 18.4472C294.437 16.6153 294.132 14.919 293.521 13.3584C292.945 11.7979 292.114 10.4409 291.028 9.28739C289.976 8.1 288.738 7.18402 287.313 6.53944C285.888 5.89485 284.345 5.57256 282.682 5.57256C281.02 5.57256 279.476 5.89485 278.052 6.53944C276.627 7.18402 275.371 8.1 274.286 9.28739C273.234 10.4409 272.403 11.7979 271.792 13.3584C271.182 14.919 270.876 16.6153 270.876 18.4472C270.876 20.2792 271.182 21.9755 271.792 23.536C272.403 25.0966 273.234 26.4706 274.286 27.658C275.371 28.8114 276.627 29.7104 278.052 30.355C279.476 30.9996 281.02 31.3219 282.682 31.3219Z" fill="#0A0A0A"/>
<path d="M307.593 36.258V0.636427H313.547L332.121 26.5384L332.019 0.636427H337.77V36.258H332.325L313.242 9.64361L313.344 36.258H307.593Z" fill="#0A0A0A"/>
<path d="M57.6738 50.0531C57.6738 47.0763 60.087 44.6631 63.0638 44.6631H123.956V66.5025H63.0638C60.087 66.5025 57.6738 64.0893 57.6738 61.1125V50.0531Z" fill="#777777" fill-opacity="0.1"/>
<path d="M63.0635 45H123.619V66.166H63.0635C60.2729 66.1658 58.0107 63.9029 58.0107 61.1123V50.0527C58.0109 47.2622 60.273 45.0002 63.0635 45Z" stroke="#9CA3AF" stroke-opacity="0.6" stroke-width="0.673748"/>
<path d="M63.0645 60.2179V50.7854H64.4389L69.7076 57.7924V50.7854H71.0416V60.2179H69.8019L64.4119 52.9953V60.2179H63.0645Z" fill="#9CA3AF"/>
<path d="M72.03 60.2179L75.9243 50.7854H77.5952L81.449 60.2179H79.9129L78.8214 57.4555H74.6038L73.4988 60.2179H72.03ZM75.0619 56.2832H78.3633L76.7193 52.1329L75.0619 56.2832Z" fill="#9CA3AF"/>
<path d="M85.8125 60.3527C85.0579 60.3527 84.3303 60.2044 83.6296 59.908C82.9289 59.6115 82.309 59.1938 81.77 58.6548L82.6324 57.6577C83.1445 58.1607 83.6655 58.5335 84.1955 58.7761C84.7345 59.0186 85.296 59.1399 85.8799 59.1399C86.338 59.1399 86.7378 59.077 87.0792 58.9513C87.4295 58.8165 87.699 58.6279 87.8877 58.3853C88.0763 58.1428 88.1706 57.8688 88.1706 57.5633C88.1706 57.1411 88.0224 56.8177 87.726 56.5931C87.4295 56.3686 86.9399 56.1979 86.2572 56.0811L84.6806 55.8251C83.8182 55.6724 83.1714 55.3939 82.7402 54.9896C82.318 54.5854 82.1069 54.0464 82.1069 53.3726C82.1069 52.8336 82.2506 52.362 82.5381 51.9578C82.8256 51.5445 83.2298 51.2256 83.7508 51.001C84.2809 50.7764 84.8917 50.6642 85.5834 50.6642C86.2662 50.6642 86.9354 50.7764 87.5912 51.001C88.256 51.2166 88.8534 51.531 89.3834 51.9443L88.6018 53.0223C87.5867 52.2497 86.5581 51.8634 85.5161 51.8634C85.1028 51.8634 84.7435 51.9218 84.4381 52.0386C84.1326 52.1554 83.8946 52.3216 83.7239 52.5372C83.5532 52.7438 83.4679 52.9863 83.4679 53.2648C83.4679 53.6511 83.5981 53.9476 83.8586 54.1542C84.1192 54.3518 84.5504 54.4955 85.1522 54.5854L86.6749 54.8414C87.6721 55.0031 88.4042 55.2951 88.8713 55.7173C89.3385 56.1395 89.572 56.7189 89.572 57.4555C89.572 58.0305 89.4148 58.538 89.1004 58.9782C88.786 59.4094 88.3458 59.7463 87.7799 59.9888C87.2139 60.2314 86.5581 60.3527 85.8125 60.3527Z" fill="#9CA3AF"/>
<path d="M92.2978 58.9513H94.2382C94.7322 58.9513 95.1904 58.8659 95.6126 58.6952C96.0348 58.5156 96.4031 58.273 96.7175 57.9676C97.0409 57.6532 97.288 57.2893 97.4587 56.8761C97.6383 56.4539 97.7282 55.9958 97.7282 55.5017C97.7282 55.0166 97.6383 54.5629 97.4587 54.1407C97.288 53.7185 97.0409 53.3547 96.7175 53.0492C96.4031 52.7348 96.0348 52.4923 95.6126 52.3216C95.1904 52.1419 94.7322 52.0521 94.2382 52.0521H92.2978V58.9513ZM90.8829 60.2179V50.7854H94.2112C94.9209 50.7854 95.5767 50.9067 96.1785 51.1493C96.7804 51.3828 97.306 51.7107 97.7551 52.1329C98.2043 52.5551 98.5546 53.0537 98.8062 53.6286C99.0577 54.2036 99.1835 54.8279 99.1835 55.5017C99.1835 56.1844 99.0577 56.8132 98.8062 57.3882C98.5636 57.9541 98.2178 58.4482 97.7686 58.8704C97.3194 59.2926 96.7894 59.625 96.1785 59.8676C95.5767 60.1011 94.9209 60.2179 94.2112 60.2179H90.8829Z" fill="#9CA3AF"/>
<path d="M99.2432 60.2179L103.137 50.7854H104.808L108.662 60.2179H107.126L106.035 57.4555H101.817L100.712 60.2179H99.2432ZM102.275 56.2832H105.576L103.932 52.1329L102.275 56.2832Z" fill="#9CA3AF"/>
<path d="M116.707 60.5278L116.06 59.7463C115.71 59.9349 115.333 60.0876 114.929 60.2044C114.524 60.3122 114.102 60.3661 113.662 60.3661C112.97 60.3661 112.323 60.2449 111.721 60.0023C111.129 59.7508 110.608 59.4049 110.158 58.9647C109.709 58.5156 109.359 57.999 109.107 57.4151C108.865 56.8222 108.744 56.1844 108.744 55.5017C108.744 54.8189 108.865 54.1856 109.107 53.6017C109.359 53.0088 109.709 52.4923 110.158 52.0521C110.608 51.6029 111.129 51.2571 111.721 51.0145C112.323 50.763 112.97 50.6372 113.662 50.6372C114.345 50.6372 114.982 50.763 115.575 51.0145C116.168 51.2571 116.689 51.6029 117.138 52.0521C117.588 52.4923 117.938 53.0088 118.189 53.6017C118.441 54.1856 118.567 54.8189 118.567 55.5017C118.567 56.1934 118.432 56.8447 118.163 57.4555C117.893 58.0664 117.525 58.5919 117.058 59.0321L118.028 60.2179L116.707 60.5278ZM113.662 59.0591C113.94 59.0591 114.205 59.0276 114.457 58.9647C114.717 58.9019 114.96 58.8075 115.185 58.6818L113.972 57.213L115.306 56.8896L116.182 57.9541C116.478 57.6397 116.707 57.2714 116.869 56.8492C117.04 56.4269 117.125 55.9778 117.125 55.5017C117.125 54.9896 117.035 54.518 116.855 54.0868C116.676 53.6556 116.429 53.2828 116.114 52.9684C115.8 52.645 115.432 52.3934 115.009 52.2138C114.596 52.0341 114.147 51.9443 113.662 51.9443C113.168 51.9443 112.71 52.0341 112.287 52.2138C111.865 52.3934 111.497 52.645 111.182 52.9684C110.868 53.2828 110.621 53.6556 110.441 54.0868C110.271 54.518 110.185 54.9896 110.185 55.5017C110.185 56.0047 110.271 56.4764 110.441 56.9165C110.621 57.3477 110.868 57.725 111.182 58.0484C111.497 58.3629 111.865 58.6099 112.287 58.7896C112.71 58.9692 113.168 59.0591 113.662 59.0591Z" fill="#9CA3AF"/>
<mask id="path-6-inside-1_2114_235" fill="white">
<path d="M123.957 44.6631H172.411C175.387 44.6631 177.801 47.0763 177.801 50.0531V61.1125C177.801 64.0893 175.387 66.5025 172.411 66.5025H123.957V44.6631Z"/>
</mask>
<path d="M123.957 44.6631H172.411C175.387 44.6631 177.801 47.0763 177.801 50.0531V61.1125C177.801 64.0893 175.387 66.5025 172.411 66.5025H123.957V44.6631Z" fill="#777777" fill-opacity="0.3"/>
<path d="M123.957 43.9893H172.411C175.76 43.9893 178.474 46.7042 178.474 50.0531L177.127 50.0531C177.127 47.4484 175.015 45.3368 172.411 45.3368H123.957V43.9893ZM178.474 61.1125C178.474 64.4614 175.76 67.1763 172.411 67.1763H123.957V65.8288H172.411C175.015 65.8288 177.127 63.7172 177.127 61.1125L178.474 61.1125ZM123.957 66.5025V44.6631V66.5025ZM172.411 43.9893C175.76 43.9893 178.474 46.7042 178.474 50.0531V61.1125C178.474 64.4614 175.76 67.1763 172.411 67.1763L172.411 65.8288C175.015 65.8288 177.127 63.7172 177.127 61.1125V50.0531C177.127 47.4484 175.015 45.3368 172.411 45.3368L172.411 43.9893Z" fill="#9CA3AF" fill-opacity="0.6" mask="url(#path-6-inside-1_2114_235)"/>
<path d="M132.595 61.202V60.0297C131.957 59.9758 131.36 59.823 130.803 59.5715C130.246 59.311 129.761 58.9651 129.348 58.5339L130.102 57.6176C130.812 58.3453 131.643 58.781 132.595 58.9247V56.0815L132.016 55.9602C131.126 55.7806 130.489 55.5111 130.102 55.1517C129.725 54.7924 129.536 54.2803 129.536 53.6156C129.536 53.1125 129.662 52.6723 129.914 52.295C130.174 51.9177 130.533 51.6258 130.992 51.4192C131.45 51.2125 131.984 51.1047 132.595 51.0958V49.9639H133.363V51.1227C133.893 51.1856 134.414 51.3114 134.926 51.5C135.447 51.6887 135.928 51.9357 136.368 52.2411L135.748 53.2652C135.335 52.9957 134.931 52.7801 134.536 52.6184C134.14 52.4478 133.749 52.331 133.363 52.2681V54.99L133.929 55.0844C134.89 55.291 135.573 55.5739 135.977 55.9333C136.382 56.2926 136.584 56.7957 136.584 57.4425C136.584 57.9455 136.449 58.3902 136.179 58.7765C135.91 59.1538 135.533 59.4547 135.048 59.6793C134.571 59.8949 134.01 60.0162 133.363 60.0431V61.202H132.595ZM132.595 54.8553V52.2142C132.056 52.2232 131.62 52.3444 131.288 52.578C130.956 52.8116 130.789 53.1215 130.789 53.5078C130.789 53.7593 130.839 53.9704 130.938 54.1411C131.037 54.3118 131.203 54.451 131.436 54.5588C131.67 54.6576 131.984 54.7475 132.38 54.8283L132.595 54.8553ZM133.363 58.9651C133.929 58.9292 134.392 58.7855 134.751 58.5339C135.11 58.2734 135.29 57.941 135.29 57.5368C135.29 57.2853 135.236 57.0786 135.128 56.9169C135.03 56.7552 134.854 56.6205 134.603 56.5127C134.36 56.4049 134.014 56.3106 133.565 56.2297L133.363 56.1893V58.9651Z" fill="#9CA3AF"/>
<path d="M136.975 60.2992L140.869 50.8667H142.54L146.394 60.2992H144.858L143.767 57.5368H139.549L138.444 60.2992H136.975ZM140.007 56.3645H143.308L141.665 52.2142L140.007 56.3645Z" fill="#9CA3AF"/>
<path d="M148.256 60.2992V52.1199H144.942V50.8667H152.986V52.1199H149.671V60.2992H148.256Z" fill="#9CA3AF"/>
<path d="M158.026 60.4474C157.343 60.4474 156.705 60.3261 156.112 60.0836C155.52 59.832 154.994 59.4862 154.536 59.046C154.087 58.5968 153.736 58.0803 153.485 57.4964C153.242 56.9035 153.121 56.2657 153.121 55.5829C153.121 54.9002 153.242 54.2669 153.485 53.683C153.736 53.0901 154.087 52.5735 154.536 52.1333C154.994 51.6842 155.52 51.3383 156.112 51.0958C156.705 50.8442 157.343 50.7185 158.026 50.7185C158.709 50.7185 159.346 50.8442 159.939 51.0958C160.541 51.3383 161.067 51.6842 161.516 52.1333C161.965 52.5735 162.315 53.0901 162.567 53.683C162.818 54.2669 162.944 54.9002 162.944 55.5829C162.944 56.2657 162.818 56.9035 162.567 57.4964C162.315 58.0803 161.965 58.5968 161.516 59.046C161.067 59.4862 160.541 59.832 159.939 60.0836C159.346 60.3261 158.709 60.4474 158.026 60.4474ZM158.039 59.1403C158.524 59.1403 158.974 59.0505 159.387 58.8708C159.809 58.6912 160.177 58.4441 160.492 58.1297C160.806 57.8063 161.053 57.429 161.233 56.9978C161.413 56.5576 161.502 56.086 161.502 55.5829C161.502 55.0709 161.413 54.5993 161.233 54.1681C161.053 53.7369 160.806 53.364 160.492 53.0496C160.177 52.7262 159.809 52.4747 159.387 52.295C158.974 52.1154 158.524 52.0255 158.039 52.0255C157.545 52.0255 157.087 52.1154 156.665 52.295C156.243 52.4747 155.874 52.7262 155.56 53.0496C155.246 53.364 154.998 53.7369 154.819 54.1681C154.648 54.5993 154.563 55.0709 154.563 55.5829C154.563 56.086 154.648 56.5576 154.819 56.9978C154.998 57.429 155.246 57.8063 155.56 58.1297C155.874 58.4441 156.243 58.6912 156.665 58.8708C157.087 59.0505 157.545 59.1403 158.039 59.1403Z" fill="#9CA3AF"/>
<path d="M164.434 60.2992V50.8667H165.809L171.077 57.8737V50.8667H172.411V60.2992H171.172L165.782 53.0766V60.2992H164.434Z" fill="#9CA3AF"/>
<path d="M210.308 67.7745C208.591 67.7745 206.987 67.4705 205.496 66.8626C204.004 66.2322 202.694 65.3653 201.564 64.2621C200.457 63.1364 199.587 61.8417 198.954 60.3783C198.344 58.8923 198.039 57.2937 198.039 55.5825C198.039 53.8714 198.344 52.2841 198.954 50.8206C199.587 49.3346 200.457 48.04 201.564 46.9368C202.694 45.811 204.004 44.9442 205.496 44.3363C206.987 43.7058 208.591 43.3906 210.308 43.3906C211.528 43.3906 212.703 43.5595 213.833 43.8972C214.963 44.2349 216.014 44.719 216.985 45.3494C217.979 45.9573 218.838 46.7116 219.561 47.6122L216.85 50.2465C216.014 49.1883 215.031 48.389 213.901 47.8486C212.771 47.3082 211.574 47.0381 210.308 47.0381C209.156 47.0381 208.083 47.252 207.088 47.6797C206.117 48.1075 205.258 48.7154 204.513 49.5035C203.79 50.269 203.225 51.1696 202.818 52.2053C202.411 53.241 202.208 54.3667 202.208 55.5825C202.208 56.7984 202.411 57.9241 202.818 58.9598C203.225 59.9955 203.79 60.9074 204.513 61.6954C205.258 62.4609 206.117 63.0576 207.088 63.4853C208.083 63.9131 209.156 64.127 210.308 64.127C211.574 64.127 212.771 63.8568 213.901 63.3165C215.031 62.7536 216.014 61.9543 216.85 60.9186L219.561 63.5529C218.838 64.431 217.979 65.1852 216.985 65.8156C216.014 66.4461 214.963 66.9301 213.833 67.2679C212.703 67.6056 211.528 67.7745 210.308 67.7745Z" fill="#0A0A0A"/>
<path d="M221.007 67.403L230.327 43.7621H235.039L244.224 67.403H239.851L237.411 60.7835H227.684L225.243 67.403H221.007ZM228.87 57.6089H236.293L232.564 47.6122L228.87 57.6089Z" fill="#0A0A0A"/>
<path d="M247.283 67.403V43.7621H257.891C259.496 43.7621 260.885 44.0773 262.06 44.7078C263.258 45.3157 264.184 46.1712 264.84 47.2745C265.495 48.3777 265.822 49.6611 265.822 51.1246C265.822 52.5205 265.495 53.7701 264.84 54.8733C264.184 55.9766 263.258 56.8434 262.06 57.4738C260.885 58.0817 259.496 58.3857 257.891 58.3857H251.35V67.403H247.283ZM251.35 55.076H257.247C258.694 55.076 259.801 54.7157 260.569 53.9952C261.337 53.2522 261.721 52.2841 261.721 51.0908C261.721 49.92 261.337 48.9856 260.569 48.2877C259.801 47.5672 258.705 47.2069 257.281 47.2069H251.35V55.076Z" fill="#0A0A0A"/>
<path d="M270.117 67.403V43.7621H274.184V67.403H270.117Z" fill="#0A0A0A"/>
<path d="M285.651 67.403V47.2745H277.72V43.7621H297.649V47.2745H289.718V67.403H285.651Z" fill="#0A0A0A"/>
<path d="M294.784 67.403L304.104 43.7621H308.815L318 67.403H313.628L311.188 60.7835H301.461L299.02 67.403H294.784ZM302.647 57.6089H310.069L306.341 47.6122L302.647 57.6089Z" fill="#0A0A0A"/>
<path d="M321.06 67.403V43.7621H325.127V63.8906H337.769V67.403H321.06Z" fill="#0A0A0A"/>
</svg>
